<?xml version="1.0" encoding="UTF-8" standalone="no"?>
<!-- Generator: Adobe Illustrator 15.0.2, SVG Export Plug-In . SVG Version: 6.00 Build 0)  -->

<svg
   xmlns:dc="http://purl.org/dc/elements/1.1/"
   xmlns:cc="http://creativecommons.org/ns#"
   xmlns:rdf="http://www.w3.org/1999/02/22-rdf-syntax-ns#"
   xmlns:svg="http://www.w3.org/2000/svg"
   xmlns="http://www.w3.org/2000/svg"
   xmlns:xlink="http://www.w3.org/1999/xlink"
   xmlns:sodipodi="http://sodipodi.sourceforge.net/DTD/sodipodi-0.dtd"
   xmlns:inkscape="http://www.inkscape.org/namespaces/inkscape"
   version="1.1"
   id="レイヤー_1"
   x="0px"
   y="0px"
   width="64px"
   height="64px"
   viewBox="0 0 64 64"
   enable-background="new 0 0 64 64"
   xml:space="preserve"
   inkscape:version="0.48.3.1 r9886"
   sodipodi:docname="extraterrestrial_alien.svg"><metadata
   id="metadata91"><rdf:RDF><cc:Work
       rdf:about=""><dc:format>image/svg+xml</dc:format><dc:type
         rdf:resource="http://purl.org/dc/dcmitype/StillImage" /></cc:Work></rdf:RDF></metadata><defs
   id="defs89" /><sodipodi:namedview
   pagecolor="#ffffff"
   bordercolor="#666666"
   borderopacity="1"
   objecttolerance="10"
   gridtolerance="10"
   guidetolerance="10"
   inkscape:pageopacity="0"
   inkscape:pageshadow="2"
   inkscape:window-width="1046"
   inkscape:window-height="983"
   id="namedview87"
   showgrid="false"
   inkscape:zoom="7.375"
   inkscape:cx="42.290614"
   inkscape:cy="32.340523"
   inkscape:window-x="49"
   inkscape:window-y="24"
   inkscape:window-maximized="0"
   inkscape:current-layer="g7" />
<g
   id="g3">
	<g
   id="g5">
		<g
   id="g7">
			<path
   fill="#A1AAB7"
   d="M56.013,31.992c-3.116,21.037-14.32,28.282-24.021,28.282c-9.454,0-20.963-7.253-24.023-28.282     C5.561,15.454,18.723,3.726,31.991,3.726C45.257,3.726,58.513,15.119,56.013,31.992z"
   id="path9"
   style="fill:#00ff00;fill-opacity:0.29019609" />
			<path
   fill="none"
   stroke="#231815"
   stroke-width="0.9854"
   stroke-miterlimit="10"
   d="M56.013,31.992     c-3.116,21.037-14.32,28.282-24.021,28.282c-9.454,0-20.963-7.253-24.023-28.282C5.561,15.454,18.723,3.726,31.991,3.726     C45.257,3.726,58.513,15.119,56.013,31.992z"
   id="path11" />
		</g>
		<defs
   id="defs13">
			<filter
   id="Adobe_OpacityMaskFilter"
   filterUnits="userSpaceOnUse"
   x="7.188"
   y="3.233"
   width="49.623"
   height="57.535">
				
					<feColorMatrix
   type="matrix"
   values="-1 0 0 0 1  0 -1 0 0 1  0 0 -1 0 1  0 0 0 1 0"
   color-interpolation-filters="sRGB"
   result="source"
   id="feColorMatrix16" />
			</filter>
		</defs>
		<mask
   maskUnits="userSpaceOnUse"
   x="7.188"
   y="3.233"
   width="49.623"
   height="57.535"
   id="SVGID_1_">
			<g
   filter="url(#Adobe_OpacityMaskFilter)"
   id="g19">
				<image
   sodipodi:absref="/home/cedricici/www/newJeu/images/11D72AC.jpg"
   xlink:href="11D72AC.jpg"
   id="image21"
   transform="matrix(1 0 0 1 5 1)"
   height="62"
   width="54"
   overflow="visible">
				</image>
			</g>
		</mask>
		<g
   opacity="0.23"
   mask="url(#SVGID_1_)"
   id="g23">
			<path
   fill="#444472"
   d="M56.013,31.992c-3.116,21.037-14.32,28.282-24.021,28.282c-9.454,0-20.963-7.253-24.023-28.282     C5.561,15.454,18.723,3.726,31.991,3.726C45.257,3.726,58.513,15.119,56.013,31.992z"
   id="path25" />
			<path
   fill="none"
   stroke="#444472"
   stroke-width="0.9854"
   stroke-miterlimit="10"
   d="M56.013,31.992     c-3.116,21.037-14.32,28.282-24.021,28.282c-9.454,0-20.963-7.253-24.023-28.282C5.561,15.454,18.723,3.726,31.991,3.726     C45.257,3.726,58.513,15.119,56.013,31.992z"
   id="path27" />
		</g>
	</g>
	<g
   id="g29">
		<g
   id="g31">
			
				<ellipse
   transform="matrix(-0.7634 -0.6459 0.6459 -0.7634 56.2212 87.6895)"
   fill="#4D555B"
   cx="44.171"
   cy="33.548"
   rx="7.632"
   ry="10.98"
   id="ellipse33" />
			
			<linearGradient
   id="SVGID_3_"
   gradientUnits="userSpaceOnUse"
   x1="44.959"
   y1="25.0474"
   x2="47.0076"
   y2="30.948">
				<stop
   offset="0"
   style="stop-color:#FFFFFF"
   id="stop51" />
				<stop
   offset="1"
   style="stop-color:#00021F;stop-opacity:0"
   id="stop53" />
			</linearGradient>
			<path
   fill="url(#SVGID_3_)"
   d="M44.688,24.59c-2.48,0.938-3.881,3.318-3.126,5.319c0.756,1.999,3.381,2.86,5.862,1.923     s3.883-3.318,3.127-5.318C49.795,24.513,47.171,23.652,44.688,24.59z"
   id="path55" />
		</g>
		<g
   id="g57">
			
				<ellipse
   transform="matrix(-0.842 0.5395 -0.5395 -0.842 55.753 50.7664)"
   fill="#4D555B"
   cx="20.442"
   cy="33.548"
   rx="7.632"
   ry="10.98"
   id="ellipse59" />
			
			
				<linearGradient
   id="SVGID_5_"
   gradientUnits="userSpaceOnUse"
   x1="70.8184"
   y1="25.0469"
   x2="72.8672"
   y2="30.9482"
   gradientTransform="matrix(-1 0 0 1 89.8594 0)">
				<stop
   offset="0"
   style="stop-color:#FFFFFF"
   id="stop77" />
				<stop
   offset="1"
   style="stop-color:#00021F;stop-opacity:0"
   id="stop79" />
			</linearGradient>
			<path
   fill="url(#SVGID_5_)"
   d="M19.312,24.59c2.48,0.938,3.881,3.318,3.126,5.319c-0.756,1.999-3.381,2.86-5.862,1.923     s-3.883-3.318-3.127-5.318C14.205,24.513,16.829,23.652,19.312,24.59z"
   id="path81" />
		</g>
	</g>
	<path
   fill="#030D19"
   stroke="#44484C"
   stroke-width="0.5"
   stroke-miterlimit="1"
   d="M32,53.47c-2.823,0-5.327-1.258-6.927-3.201   c-0.005,0.104-0.016,0.203-0.016,0.309c0,3.863,3.108,6.997,6.943,6.997c3.834,0,6.943-3.134,6.943-6.997   c0-0.105-0.012-0.205-0.016-0.309C37.326,52.212,34.824,53.47,32,53.47z"
   id="path83" />
	<path
   fill="#778189"
   d="M32,59.627c0,0,11.398,1.886,18.757-12.295C50.757,47.332,44.328,57.004,32,59.627z"
   id="path85" />
</g>
</svg>